<svg version="1.1" xmlns="http://www.w3.org/2000/svg" viewBox="0 0 1093.353328963021 654.1806337523428" width="1093.353328963021" height="654.1806337523428">
  <!-- svg-source:excalidraw -->
  
  <defs>
    <style class="style-fonts">
      @font-face {
        font-family: "Virgil";
        src: url("https://excalidraw.com/Virgil.woff2");
      }
      @font-face {
        font-family: "Cascadia";
        src: url("https://excalidraw.com/Cascadia.woff2");
      }
    </style>
    
  </defs>
  <rect x="0" y="0" width="1093.353328963021" height="654.1806337523428" fill="#ffffff"></rect><g stroke-linecap="round" transform="translate(827.5948720405302 10) rotate(0 65.32851873411971 30.894627425613976)"><path d="M15.45 0 M15.45 0 C44.55 2.51, 70.4 1.77, 115.21 0 M15.45 0 C45.17 1.54, 73.57 1.77, 115.21 0 M115.21 0 C126.21 -0.9, 130.09 5.47, 130.66 15.45 M115.21 0 C124.46 2.03, 128.71 7.13, 130.66 15.45 M130.66 15.45 C130.5 22.14, 129.56 31.1, 130.66 46.34 M130.66 15.45 C131.27 26.85, 130.99 36.21, 130.66 46.34 M130.66 46.34 C131.31 56.96, 126.72 61.8, 115.21 61.79 M130.66 46.34 C131.46 56.23, 126.9 60.35, 115.21 61.79 M115.21 61.79 C79.43 60.26, 43.32 60.29, 15.45 61.79 M115.21 61.79 C76.07 61.18, 36.79 62.04, 15.45 61.79 M15.45 61.79 C5.71 63.11, -1.12 55.01, 0 46.34 M15.45 61.79 C6.82 63.32, -0.35 55.59, 0 46.34 M0 46.34 C-0.53 37.7, 0.3 31.9, 0 15.45 M0 46.34 C-0.3 39.45, 0.64 33.16, 0 15.45 M0 15.45 C-0.51 3.21, 4.26 -1.05, 15.45 0 M0 15.45 C0.29 4.37, 6.9 1.81, 15.45 0" stroke="#1e1e1e" stroke-width="1" fill="none"></path></g><g transform="translate(849.1968359040443 25.341014692304952) rotate(0 43.72655487060547 15.553612733309023)"><text x="43.72655487060547" y="0" font-family="Virgil, Segoe UI Emoji" font-size="12.442890186647222px" fill="#1e1e1e" text-anchor="middle" style="white-space: pre;" direction="ltr" dominant-baseline="text-before-edge">Authorization </text><text x="43.72655487060547" y="15.553612733309027" font-family="Virgil, Segoe UI Emoji" font-size="12.442890186647222px" fill="#1e1e1e" text-anchor="middle" style="white-space: pre;" direction="ltr" dominant-baseline="text-before-edge">Server</text></g><g stroke-linecap="round"><g transform="translate(891.2210017299426 68.22299521751756) rotate(0 1.8534775460628907 278.38809017181575)"><path d="M0.55 -0.05 C0.91 92.85, 2.68 463.71, 3.16 556.83" stroke="#1e1e1e" stroke-width="1.5" fill="none" stroke-dasharray="1.5 7"></path></g></g><mask></mask><g stroke-linecap="round" transform="translate(265.77921379417535 15.843806115297411) rotate(0 65.32851873411971 30.894627425613976)"><path d="M15.45 0 M15.45 0 C50.6 -1.28, 84.92 -0.34, 115.21 0 M15.45 0 C52.89 -0.05, 90.08 -0.35, 115.21 0 M115.21 0 C125.92 1.13, 129.61 3.21, 130.66 15.45 M115.21 0 C125.59 1.52, 131.41 7.01, 130.66 15.45 M130.66 15.45 C129.16 21.44, 128.73 27.76, 130.66 46.34 M130.66 15.45 C129.52 21.45, 129.89 27.3, 130.66 46.34 M130.66 46.34 C132.55 55, 127.3 62.14, 115.21 61.79 M130.66 46.34 C130.69 54.38, 127.61 59.59, 115.21 61.79 M115.21 61.79 C76.89 59.65, 43.13 60.34, 15.45 61.79 M115.21 61.79 C92.63 60.81, 69.96 60.38, 15.45 61.79 M15.45 61.79 C5.3 60.22, 0.49 58.51, 0 46.34 M15.45 61.79 C4.6 60.86, -1.17 55.36, 0 46.34 M0 46.34 C-1.96 34.16, 0.13 20.05, 0 15.45 M0 46.34 C0.11 38.83, 0.72 29.66, 0 15.45 M0 15.45 C-0.29 5.04, 6.41 1.28, 15.45 0 M0 15.45 C-0.16 5.36, 7.3 0.89, 15.45 0" stroke="#1e1e1e" stroke-width="1" fill="none"></path></g><g transform="translate(314.2826516567129 38.96162717425682) rotate(0 16.82508087158203 7.776806366654569)"><text x="16.82508087158203" y="0" font-family="Virgil, Segoe UI Emoji" font-size="12.442890186647222px" fill="#1e1e1e" text-anchor="middle" style="white-space: pre;" direction="ltr" dominant-baseline="text-before-edge">Client</text></g><g stroke-linecap="round"><g transform="translate(329.405343483588 74.06680133281498) rotate(0 2.2963360227561225 285.51563084208135)"><path d="M0.07 0.92 C0.91 96.1, 3.87 475.26, 4.52 570.11" stroke="#1e1e1e" stroke-width="1.5" fill="none" stroke-dasharray="1.5 7"></path></g></g><mask></mask><g stroke-linecap="round" transform="translate(324.737945947606 104.97827732122619) rotate(0 6.5046988532003525 9.916052029545313)"><path d="M3.46 -0.98 L10.88 -0.91 L13.66 0.39 L13.89 15.83 L12.06 20.01 L0.47 20.34 L1.77 17.46 L-0.27 3.26 L5 -1.83" stroke="none" stroke-width="0" fill="#ffffff"></path><path d="M3.25 0 M3.25 0 C5.21 -0.47, 8.42 -0.14, 9.76 0 M3.25 0 C5.48 0.01, 7.72 -0.13, 9.76 0 M9.76 0 C12.73 1.79, 14.71 0.07, 13.01 3.25 M9.76 0 C11.55 -1.11, 11.3 2.92, 13.01 3.25 M13.01 3.25 C12.24 6.58, 12.03 12.04, 13.01 16.58 M13.01 3.25 C13.49 7.24, 13.68 12.42, 13.01 16.58 M13.01 16.58 C14.69 18.6, 12.59 19.36, 9.76 19.83 M13.01 16.58 C13.52 18.24, 13.39 19.64, 9.76 19.83 M9.76 19.83 C8.4 20.46, 6.76 19.81, 3.25 19.83 M9.76 19.83 C7.67 19.85, 4.81 20.16, 3.25 19.83 M3.25 19.83 C1.98 18.58, -0.2 19.13, 0 16.58 M3.25 19.83 C2.86 18.82, 0.82 17.84, 0 16.58 M0 16.58 C-1.21 10.66, -0.62 7.07, 0 3.25 M0 16.58 C0.47 13.38, 0.27 9.53, 0 3.25 M0 3.25 C-0.53 1.04, 1.83 1.62, 3.25 0 M0 3.25 C2.13 3.1, 2.88 1.26, 3.25 0" stroke="#1e1e1e" stroke-width="1" fill="none"></path></g><g mask="url(#mask-xgvtFv3ks_EWEj0e5AoDq)" stroke-linecap="round"><g transform="translate(339.0386468337531 116.74196014456084) rotate(0 265.0068779303947 -2.514089212747649)"><path d="M-1.04 -0.33 C87.03 -0.65, 440.24 -2.37, 528.67 -2.94 M0.61 -1.55 C89.06 -2.12, 443.01 -4.53, 531.06 -4.69" stroke="#1e1e1e" stroke-width="1" fill="none"></path></g><g transform="translate(339.0386468337531 116.74196014456084) rotate(0 265.0068779303947 -2.514089212747649)"><path d="M502.36 4.66 C513.12 3.05, 520.66 -1.9, 531.35 -3.16 M503.84 6.23 C513.86 2.26, 523.1 -1.37, 531.12 -5.68" stroke="#1e1e1e" stroke-width="1" fill="none"></path></g><g transform="translate(339.0386468337531 116.74196014456084) rotate(0 265.0068779303947 -2.514089212747649)"><path d="M502.26 -15.86 C512.88 -10.96, 520.44 -9.39, 531.35 -3.16 M503.74 -14.3 C513.88 -10.7, 523.15 -6.76, 531.12 -5.68" stroke="#1e1e1e" stroke-width="1" fill="none"></path></g></g><mask id="mask-xgvtFv3ks_EWEj0e5AoDq"><rect x="0" y="0" fill="#fff" width="968.338038257277" height="220.39588980439567"></rect><rect x="439.33642909336663" y="94.91499531464342" fill="#000" width="328.7038269042969" height="40" opacity="1"></rect></mask><g transform="translate(439.33642909336663 94.91499531464342) rotate(0 164.70909567078115 19.312875617169766)"><text x="164.35191345214844" y="0" font-family="Virgil, Segoe UI Emoji" font-size="16px" fill="#1e1e1e" text-anchor="middle" style="white-space: pre;" direction="ltr" dominant-baseline="text-before-edge">1. Client send Authentication Request to </text><text x="164.35191345214844" y="20" font-family="Virgil, Segoe UI Emoji" font-size="16px" fill="#1e1e1e" text-anchor="middle" style="white-space: pre;" direction="ltr" dominant-baseline="text-before-edge">authorize endpoint</text></g><g stroke-linecap="round" transform="translate(882.4821445414027 109.34832071975507) rotate(0 7.338263965499436 48.558781513001804)"><path d="M1.95 0.11 L12.19 2.12 L15.5 4.32 L16.39 93.54 L13.69 97.06 L11.24 98.61 L1.68 96.1 L0.4 92.32 L-0.63 5.44 L1.81 -0.51 L1.73 -1.85" stroke="none" stroke-width="0" fill="#ffffff"></path><path d="M3.67 0 M3.67 0 C7.1 0.34, 8.7 0.47, 11.01 0 M3.67 0 C6.18 0.02, 8.9 0.41, 11.01 0 M11.01 0 C14.11 -1.15, 13.27 0.11, 14.68 3.67 M11.01 0 C15.65 1.44, 16.75 2.39, 14.68 3.67 M14.68 3.67 C17.11 30.23, 15.16 55.23, 14.68 93.45 M14.68 3.67 C15.55 26.96, 14.29 52.24, 14.68 93.45 M14.68 93.45 C15.67 97.67, 12.45 97.81, 11.01 97.12 M14.68 93.45 C15.9 95.8, 14.18 95.53, 11.01 97.12 M11.01 97.12 C8.03 97.27, 5.14 97.53, 3.67 97.12 M11.01 97.12 C8.66 96.78, 6.91 97.28, 3.67 97.12 M3.67 97.12 C0.15 95.43, -0.45 94.1, 0 93.45 M3.67 97.12 C1.4 95.49, 0.66 96.55, 0 93.45 M0 93.45 C-2.08 70.4, -0.59 43.3, 0 3.67 M0 93.45 C-0.06 66.09, 0.14 39.46, 0 3.67 M0 3.67 C-0.35 2.63, -0.77 -0.4, 3.67 0 M0 3.67 C-1.25 2.71, 1.99 -0.7, 3.67 0" stroke="#1e1e1e" stroke-width="1" fill="none"></path></g><g stroke-linecap="round" transform="translate(10 20.27907615301092) rotate(0 65.32851873411965 30.894627425613976)"><path d="M15.45 0 M15.45 0 C35.64 1.09, 59.13 2.02, 115.21 0 M15.45 0 C52.65 0.85, 87.57 0.69, 115.21 0 M115.21 0 C125.9 1.78, 130.57 6.09, 130.66 15.45 M115.21 0 C126.61 -1.86, 129.89 3.1, 130.66 15.45 M130.66 15.45 C131.66 22.97, 129.12 31.84, 130.66 46.34 M130.66 15.45 C131.32 27.9, 131.46 39.82, 130.66 46.34 M130.66 46.34 C132.05 57.71, 126.03 60.92, 115.21 61.79 M130.66 46.34 C128.63 57.95, 125.29 60, 115.21 61.79 M115.21 61.79 C81.74 60.97, 43.67 61.29, 15.45 61.79 M115.21 61.79 C91.04 63.15, 68.28 61.84, 15.45 61.79 M15.45 61.79 C5.51 63.32, -1.28 57.35, 0 46.34 M15.45 61.79 C2.9 63.78, -1.21 55.85, 0 46.34 M0 46.34 C2.23 39.75, -0.98 33.64, 0 15.45 M0 46.34 C0.72 35.08, 0.26 23.09, 0 15.45 M0 15.45 C-1.08 6.72, 6.88 1.65, 15.45 0 M0 15.45 C2.12 4.11, 6.37 0.12, 15.45 0" stroke="#1e1e1e" stroke-width="1" fill="none"></path></g><g transform="translate(61.43304906859237 43.39689721197033) rotate(0 13.895469665527344 7.776806366654569)"><text x="13.895469665527344" y="0" font-family="Virgil, Segoe UI Emoji" font-size="12.442890186647222px" fill="#1e1e1e" text-anchor="middle" style="white-space: pre;" direction="ltr" dominant-baseline="text-before-edge">User</text></g><g stroke-linecap="round"><g transform="translate(73.62612968941266 78.50207137052848) rotate(0 1.7223339761166017 279.15682529449646)"><path d="M0.92 0.78 C1.28 93.74, 2 464.57, 2.52 557.53" stroke="#1e1e1e" stroke-width="1.5" fill="none" stroke-dasharray="1.5 7"></path></g></g><mask></mask><g stroke-linecap="round" transform="translate(69.93182413890133 200.5851541529205) rotate(0 6.592148519455407 43.32129436231389)"><path d="M4.38 -1.71 L12.35 1.43 L14.89 4.8 L12.53 84.24 L11.33 84.14 L9.26 85.73 L3.75 86.37 L-0.59 81.57 L1.08 4.3 L2.14 -0.99 L3.94 -0.38" stroke="none" stroke-width="0" fill="#ffffff"></path><path d="M3.3 0 M3.3 0 C5.22 0.07, 6.03 0.51, 9.89 0 M3.3 0 C4.72 0.21, 6.88 0.34, 9.89 0 M9.89 0 C12.63 -0.47, 14.93 -0.64, 13.18 3.3 M9.89 0 C10.93 1.69, 15.04 2.09, 13.18 3.3 M13.18 3.3 C13.45 26.75, 12.08 47.46, 13.18 83.35 M13.18 3.3 C12.71 35.01, 13.72 65.48, 13.18 83.35 M13.18 83.35 C14.66 87.13, 11.89 86.09, 9.89 86.64 M13.18 83.35 C10.99 86.66, 12.49 86.5, 9.89 86.64 M9.89 86.64 C7.31 87.31, 5.5 86.02, 3.3 86.64 M9.89 86.64 C8.3 86.6, 6.44 86.75, 3.3 86.64 M3.3 86.64 C0.43 88.26, -1.64 86.53, 0 83.35 M3.3 86.64 C1.45 88.61, 2.04 85.11, 0 83.35 M0 83.35 C-1.79 62.8, -1.58 41.57, 0 3.3 M0 83.35 C0.22 55.57, -1.48 28.79, 0 3.3 M0 3.3 C-0.62 0.83, 0.62 1.33, 3.3 0 M0 3.3 C1.44 3.21, 0.67 -0.76, 3.3 0" stroke="#1e1e1e" stroke-width="1" fill="none"></path></g><g mask="url(#mask-qYDWInF3Z9eWdMneJXylV)" stroke-linecap="round"><g transform="translate(868.236854052893 200.83926101360566) rotate(0 -391.42554200237123 1.5365823835730907)"><path d="M-0.16 -0.07 C-130.28 0.57, -651.56 2.25, -781.76 2.88 M-1.71 -1.15 C-131.88 -0.26, -652.65 3.76, -782.69 4.23" stroke="#1e1e1e" stroke-width="1" fill="none"></path></g><g transform="translate(868.236854052893 200.83926101360566) rotate(0 -391.42554200237123 1.5365823835730907)"><path d="M-754.68 -6.13 C-761.16 -3.34, -765.67 -2.64, -780.8 2.35 M-753.84 -6.96 C-762.46 -3.9, -770.28 0.07, -783.62 3.28" stroke="#1e1e1e" stroke-width="1" fill="none"></path></g><g transform="translate(868.236854052893 200.83926101360566) rotate(0 -391.42554200237123 1.5365823835730907)"><path d="M-754.55 14.4 C-760.9 12.88, -765.43 9.26, -780.8 2.35 M-753.71 13.56 C-762.56 10.89, -770.42 9.15, -783.62 3.28" stroke="#1e1e1e" stroke-width="1" fill="none"></path></g></g><mask id="mask-qYDWInF3Z9eWdMneJXylV"><rect x="0" y="0" fill="#fff" width="1750.046449504713" height="304.0891113892096"></rect><rect x="352.3241370154599" y="192.46418620140753" fill="#000" width="250.01583862304688" height="20" opacity="1"></rect></mask><g transform="translate(352.32413701545966 192.46418620140753) rotate(0 124.48717503506214 9.911657195771227)"><text x="125.00791931152344" y="0" font-family="Virgil, Segoe UI Emoji" font-size="16px" fill="#1e1e1e" text-anchor="middle" style="white-space: pre;" direction="ltr" dominant-baseline="text-before-edge">2. Authenticates the End-User.</text></g><g stroke-linecap="round" transform="translate(885.5848138505098 280.38335419534724) rotate(0 6.052499429412251 48.953881739640565)"><path d="M2.9 1.95 L11.12 2.14 L11.46 3.23 L11.79 95.51 L12.03 95.27 L10.36 97.57 L3 99.19 L-1.75 92.95 L0.24 2.5 L-0.37 1.02 L1.11 0.77" stroke="none" stroke-width="0" fill="#ffffff"></path><path d="M3.03 0 M3.03 0 C4.99 -0.59, 6.37 0.17, 9.08 0 M3.03 0 C4.91 -0.21, 7.42 0.31, 9.08 0 M9.08 0 C12.01 0.25, 13.14 0.87, 12.1 3.03 M9.08 0 C11.95 0.11, 13.88 -0.87, 12.1 3.03 M12.1 3.03 C11.73 31.31, 10.44 56.36, 12.1 94.88 M12.1 3.03 C11.33 33.51, 11.46 63.41, 12.1 94.88 M12.1 94.88 C12.98 98.37, 9.31 97.76, 9.08 97.91 M12.1 94.88 C12.98 97.99, 12.82 97.24, 9.08 97.91 M9.08 97.91 C6.16 97.54, 3.81 98.04, 3.03 97.91 M9.08 97.91 C6.69 97.63, 4.54 97.92, 3.03 97.91 M3.03 97.91 C2.43 98.31, -0.22 95.47, 0 94.88 M3.03 97.91 C1.36 97.67, 1.48 97.01, 0 94.88 M0 94.88 C-0.78 69.97, 2.17 47.28, 0 3.03 M0 94.88 C-0.75 72.73, 0.55 48.64, 0 3.03 M0 3.03 C0.24 1.39, 0.05 -1.06, 3.03 0 M0 3.03 C1.03 1.59, 0.2 -1.61, 3.03 0" stroke="#1e1e1e" stroke-width="1" fill="none"></path></g><g mask="url(#mask-yiTkOcH0G5uwk3TULciaI)" stroke-linecap="round"><g transform="translate(85.65633132958226 285.3364799615249) rotate(0 392.6563145248725 -1.1418514978536223)"><path d="M0.6 1.19 C131.49 1, 654.8 -1.17, 785.86 -1.64 M-0.55 0.77 C130.11 0.27, 653.5 -2.74, 784.69 -3.48" stroke="#1e1e1e" stroke-width="1" fill="none"></path></g><g transform="translate(85.65633132958226 285.3364799615249) rotate(0 392.6563145248725 -1.1418514978536223)"><path d="M758.55 6.24 C767.09 4.43, 776.73 0.51, 783.21 -1.51 M757.16 7.9 C762.23 4.52, 768.3 1.48, 785.13 -2.64" stroke="#1e1e1e" stroke-width="1" fill="none"></path></g><g transform="translate(85.65633132958226 285.3364799615249) rotate(0 392.6563145248725 -1.1418514978536223)"><path d="M758.43 -14.28 C766.93 -9.1, 776.61 -6.02, 783.21 -1.51 M757.05 -12.62 C762.03 -11.43, 768.12 -9.9, 785.13 -2.64" stroke="#1e1e1e" stroke-width="1" fill="none"></path></g></g><mask id="mask-yiTkOcH0G5uwk3TULciaI"><rect x="0" y="0" fill="#fff" width="971.9377123456193" height="387.51480185833043"></rect><rect x="403.8050708488314" y="274.247319013122" fill="#000" width="149.98390197753906" height="20" opacity="1"></rect></mask><g transform="translate(403.8050708488313 274.247319013122) rotate(0 74.5075750056235 9.947309450549255)"><text x="74.99195098876953" y="0" font-family="Virgil, Segoe UI Emoji" font-size="16px" fill="#1e1e1e" text-anchor="middle" style="white-space: pre;" direction="ltr" dominant-baseline="text-before-edge">3. User authorized</text></g><g stroke-linecap="round" transform="translate(326.28026712138217 367.9944203047851) rotate(0 6.568057042221312 59.44572007508026)"><path d="M2.22 -1.75 L11.93 -0.44 L13.39 4.4 L12.1 116.31 L13.34 119.2 L8.79 119.03 L0.35 117.74 L0.02 115.31 L-0.63 4.52 L1.95 1.86 L3.02 -0.43" stroke="none" stroke-width="0" fill="#ffffff"></path><path d="M3.28 0 M3.28 0 C5.29 0.01, 8.01 -0.49, 9.85 0 M3.28 0 C5.38 0.27, 7.28 0.11, 9.85 0 M9.85 0 C12.92 -0.95, 14.07 1.07, 13.14 3.28 M9.85 0 C10.7 -0.82, 12.57 2.57, 13.14 3.28 M13.14 3.28 C12.47 32.58, 12.69 62.34, 13.14 115.61 M13.14 3.28 C13.64 38.7, 13.67 75.9, 13.14 115.61 M13.14 115.61 C13.68 119.48, 13.82 120.7, 9.85 118.89 M13.14 115.61 C13.46 117.66, 11.56 121.08, 9.85 118.89 M9.85 118.89 C7.83 118.88, 7.02 119.21, 3.28 118.89 M9.85 118.89 C7.65 119.11, 5.72 118.89, 3.28 118.89 M3.28 118.89 C1.6 119.03, -1.8 118.04, 0 115.61 M3.28 118.89 C3.36 121.11, -2.21 116.38, 0 115.61 M0 115.61 C0.67 76.2, 1.28 36.39, 0 3.28 M0 115.61 C-1.22 74.62, 0.45 34.21, 0 3.28 M0 3.28 C1.02 1.19, 1.53 0.82, 3.28 0 M0 3.28 C1.68 0.47, 2.51 -1.12, 3.28 0" stroke="#1e1e1e" stroke-width="1" fill="none"></path></g><g stroke-linecap="round" transform="translate(887.4735856656616 476.6452549465123) rotate(0 5.464667384900736 67.30435994883555)"><path d="M1.16 -0.05 L10.22 0.91 L10.2 2.36 L12.25 133.5 L8.15 136.41 L-0.35 134.63 L1.26 132.59 L1.94 1.68 L4.17 0.11" stroke="none" stroke-width="0" fill="#ffffff"></path><path d="M2.73 0 M2.73 0 C4.38 0.3, 5.49 -0.39, 8.2 0 M2.73 0 C4.08 -0.24, 5.61 -0.29, 8.2 0 M8.2 0 C8.12 0.82, 12.04 0.09, 10.93 2.73 M8.2 0 C10.72 2.27, 8.67 0.02, 10.93 2.73 M10.93 2.73 C10.95 53.66, 9.16 100.19, 10.93 131.88 M10.93 2.73 C11.59 49.77, 11.26 98.29, 10.93 131.88 M10.93 131.88 C10.53 132.35, 8.71 135.15, 8.2 134.61 M10.93 131.88 C10.78 134.85, 11.94 136.05, 8.2 134.61 M8.2 134.61 C6.49 134.39, 3.43 134.11, 2.73 134.61 M8.2 134.61 C6 134.5, 4.08 134.56, 2.73 134.61 M2.73 134.61 C2.18 135.79, 1.12 131.94, 0 131.88 M2.73 134.61 C2.66 135.27, -2 131.97, 0 131.88 M0 131.88 C2.16 102.41, -1.45 72.61, 0 2.73 M0 131.88 C-1.24 81.08, -1.02 32.5, 0 2.73 M0 2.73 C-0.86 1.96, 1.8 -1.72, 2.73 0 M0 2.73 C-0.11 1.7, 2.45 1.76, 2.73 0" stroke="#1e1e1e" stroke-width="1" fill="none"></path></g><g mask="url(#mask-UJ5qyg1c4404gG7gw0zGA)" stroke-linecap="round"><g transform="translate(875.1900617722195 375.3291598341232) rotate(0 -266.0551163515828 1.3357238689180804)"><path d="M-0.48 1.05 C-89.38 1.15, -444.26 0.89, -533.12 1.07 M1.47 0.55 C-87.53 0.74, -444.31 1.63, -533.58 2.12" stroke="#1e1e1e" stroke-width="1" fill="none"></path></g><g transform="translate(875.1900617722195 375.3291598341232) rotate(0 -266.0551163515828 1.3357238689180804)"><path d="M-503.68 -6.7 C-516.07 -4.27, -523.5 -2.97, -534.05 1 M-504.67 -8.51 C-516.77 -3.19, -527.9 -0.89, -533.72 3.04" stroke="#1e1e1e" stroke-width="1" fill="none"></path></g><g transform="translate(875.1900617722195 375.3291598341232) rotate(0 -266.0551163515828 1.3357238689180804)"><path d="M-503.61 13.82 C-516.1 9.58, -523.55 4.22, -534.05 1 M-504.6 12.01 C-516.66 9.51, -527.82 3.98, -533.72 3.04" stroke="#1e1e1e" stroke-width="1" fill="none"></path></g></g><mask id="mask-UJ5qyg1c4404gG7gw0zGA"><rect x="0" y="0" fill="#fff" width="1509.2371037691432" height="477.31918857355026"></rect><rect x="425.76665368879685" y="356.3241742038367" fill="#000" width="364.7997741699219" height="40" opacity="1"></rect></mask><g transform="translate(425.7666536887966 356.3241742038367) rotate(0 183.36829173184003 20.340709499204536)"><text x="182.39988708496094" y="0" font-family="Virgil, Segoe UI Emoji" font-size="16px" fill="#1e1e1e" text-anchor="middle" style="white-space: pre;" direction="ltr" dominant-baseline="text-before-edge">4. Redirect user to Client with Authorization </text><text x="182.39988708496094" y="20" font-family="Virgil, Segoe UI Emoji" font-size="16px" fill="#1e1e1e" text-anchor="middle" style="white-space: pre;" direction="ltr" dominant-baseline="text-before-edge">code</text></g><g mask="url(#mask-7qohM_nbijDHZNE7Rnu5D)" stroke-linecap="round"><g transform="translate(346.5057826076011 484.42272320954896) rotate(0 267.3252460703055 0.4203937567816638)"><path d="M0.84 0.97 C89.99 1, 445.96 -0.27, 534.83 -0.21 M-0.18 0.43 C88.91 0.65, 445.47 1.19, 534.4 1.02" stroke="#1e1e1e" stroke-width="1" fill="none"></path></g><g transform="translate(346.5057826076011 484.42272320954896) rotate(0 267.3252460703055 0.4203937567816638)"><path d="M507.82 12.94 C513.56 8.44, 524.33 3.77, 534.9 1.49 M506.75 10.59 C516.25 8.38, 527.27 2.99, 534.41 1.26" stroke="#1e1e1e" stroke-width="1" fill="none"></path></g><g transform="translate(346.5057826076011 484.42272320954896) rotate(0 267.3252460703055 0.4203937567816638)"><path d="M507.82 -7.58 C513.49 -6.06, 524.26 -4.71, 534.9 1.49 M506.75 -9.93 C516.36 -4.27, 527.39 -1.8, 534.41 1.26" stroke="#1e1e1e" stroke-width="1" fill="none"></path></g></g><mask id="mask-7qohM_nbijDHZNE7Rnu5D"><rect x="0" y="0" fill="#fff" width="980.3360013094177" height="584.7773715612291"></rect><rect x="442.83696861866565" y="464.60004738538896" fill="#000" width="341.1678466796875" height="40" opacity="1"></rect></mask><g transform="translate(442.83696861866565 464.60004738538896) rotate(0 170.99406005924095 20.243069580941665)"><text x="170.58392333984375" y="0" font-family="Virgil, Segoe UI Emoji" font-size="16px" fill="#1e1e1e" text-anchor="middle" style="white-space: pre;" direction="ltr" dominant-baseline="text-before-edge">5. Requests a response using the </text><text x="170.58392333984375" y="20" font-family="Virgil, Segoe UI Emoji" font-size="16px" fill="#1e1e1e" text-anchor="middle" style="white-space: pre;" direction="ltr" dominant-baseline="text-before-edge">Authorization Code at the Token Endpoint.</text></g><g stroke-linecap="round" transform="translate(327.79864127148676 604.7146275745904) rotate(0 6.331960565327449 11.865052537781878)"><path d="M4.2 0.41 L11.04 -0.7 L12.08 2.22 L14.37 20.14 L10.48 25.3 L0.18 22.79 L0.51 22.06 L1.75 4.31 L-0.73 1.54 L1.88 -0.21" stroke="none" stroke-width="0" fill="#ffffff"></path><path d="M3.17 0 M3.17 0 C5.57 0.44, 7.7 -0.45, 9.5 0 M3.17 0 C4.95 -0.14, 6.4 -0.29, 9.5 0 M9.5 0 C9.97 1.7, 14.53 1.14, 12.66 3.17 M9.5 0 C11.82 -1.01, 13.7 1.79, 12.66 3.17 M12.66 3.17 C12.74 11.13, 10.99 16.32, 12.66 20.56 M12.66 3.17 C13.38 8.98, 11.98 13.57, 12.66 20.56 M12.66 20.56 C12.47 24.53, 10.64 24.61, 9.5 23.73 M12.66 20.56 C10.61 20.92, 12.12 22.9, 9.5 23.73 M9.5 23.73 C7.54 24.33, 6.12 23.32, 3.17 23.73 M9.5 23.73 C7.12 23.94, 4.96 23.59, 3.17 23.73 M3.17 23.73 C1.74 23.82, 2 22.84, 0 20.56 M3.17 23.73 C0.39 25.06, -0.41 23.13, 0 20.56 M0 20.56 C0.91 14.82, 1.49 10.82, 0 3.17 M0 20.56 C-0.98 14.85, -0.59 7.78, 0 3.17 M0 3.17 C0.46 -0.47, -0.89 -0.02, 3.17 0 M0 3.17 C0.33 3.13, 2.85 -0.15, 3.17 0" stroke="#1e1e1e" stroke-width="1" fill="none"></path></g><g mask="url(#mask-MhFv7IDiw46W8a0LO065c)" stroke-linecap="round"><g transform="translate(905.9062878560935 128.7250958591212) rotate(0 49.94867096266262 25.556675849074736)"><path d="M1.84 -1.93 C38.84 -1.99, 79.76 -1.85, 105.11 -1.57 M-0.87 0.28 C33.09 -0.68, 67.62 -1.02, 103.81 -3.5 M102.63 -1.66 C103.56 18.76, 105.78 37.12, 104.48 51.33 M103.98 -3.28 C104.78 13.92, 104.37 30.93, 104.83 53.62 M103.48 53.24 C68.58 51.9, 32.22 54.17, -5.21 54.61 M104.85 53.69 C71.04 54.18, 36.89 55.06, -4.8 53.86" stroke="#1e1e1e" stroke-width="1" fill="none"></path></g><g transform="translate(905.9062878560935 128.7250958591212) rotate(0 49.94867096266262 25.556675849074736)"><path d="M25.39 42.13 C12.96 46.58, 4.35 51.56, -3.39 55.39 M22.68 44.34 C14.11 46.98, 6.07 50.8, -4.69 53.46" stroke="#1e1e1e" stroke-width="1" fill="none"></path></g><g transform="translate(905.9062878560935 128.7250958591212) rotate(0 49.94867096266262 25.556675849074736)"><path d="M25.05 62.65 C12.58 59.4, 4.09 56.69, -3.39 55.39 M22.34 64.86 C13.83 60.88, 5.89 58.09, -4.69 53.46" stroke="#1e1e1e" stroke-width="1" fill="none"></path></g></g><mask id="mask-MhFv7IDiw46W8a0LO065c"><rect x="0" y="0" fill="#fff" width="1113.9469266600267" height="286.66509860707174"></rect><rect x="936.1374170977865" y="133.58750036468678" fill="#000" width="147.21591186523438" height="40" opacity="1"></rect></mask><g transform="translate(936.1374170977867 133.58750036468678) rotate(0 19.717541720969393 20.694271343509172)"><text x="73.60795593261719" y="0" font-family="Virgil, Segoe UI Emoji" font-size="16px" fill="#1e1e1e" text-anchor="middle" style="white-space: pre;" direction="ltr" dominant-baseline="text-before-edge">Authentication </text><text x="73.60795593261719" y="20" font-family="Virgil, Segoe UI Emoji" font-size="16px" fill="#1e1e1e" text-anchor="middle" style="white-space: pre;" direction="ltr" dominant-baseline="text-before-edge">Request Validation</text></g><g mask="url(#mask-Nqea7fLoX6dVRxCYVwKoc)" stroke-linecap="round"><g transform="translate(882.7045018822128 612.7324869012289) rotate(0 -269.2499757223277 2.4047802266695157)"><path d="M-0.41 0.45 C-200.5 4.55, -401.15 5.53, -538.83 4.31 M0.4 0.01 C-214.77 2.48, -430.11 4.49, -538.9 4.79" stroke="#1e1e1e" stroke-width="1" fill="none"></path></g><g transform="translate(882.7045018822128 612.7324869012289) rotate(0 -269.2499757223277 2.4047802266695157)"><path d="M-511.78 -4.51 C-521.57 -0.21, -532.77 1.38, -538.88 2.81 M-509.77 -5.61 C-521.75 -1.15, -534.13 2.96, -539.04 4.02" stroke="#1e1e1e" stroke-width="1" fill="none"></path></g><g transform="translate(882.7045018822128 612.7324869012289) rotate(0 -269.2499757223277 2.4047802266695157)"><path d="M-511.67 16.01 C-521.56 12.68, -532.8 6.64, -538.88 2.81 M-509.66 14.92 C-521.52 11.19, -533.95 7.12, -539.04 4.02" stroke="#1e1e1e" stroke-width="1" fill="none"></path></g></g><mask id="mask-Nqea7fLoX6dVRxCYVwKoc"><rect x="0" y="0" fill="#fff" width="1521.5469302297702" height="717.8278502521628"></rect><rect x="435.30738133636396" y="605.2801685766958" fill="#000" width="355.9518127441406" height="20" opacity="1"></rect></mask><g transform="translate(435.30738133636373 605.2801685766958) rotate(0 178.14714482352133 9.857098551202569)"><text x="177.9759063720703" y="0" font-family="Virgil, Segoe UI Emoji" font-size="16px" fill="#1e1e1e" text-anchor="middle" style="white-space: pre;" direction="ltr" dominant-baseline="text-before-edge">6. Return issued Access token and Id Token</text></g></svg>